<svg xmlns="http://www.w3.org/2000/svg" width="1600" height="1000" viewBox="0 0 1600 1000" role="img" aria-label="Layered website design previews">
  <defs>
    <linearGradient id="bg" x1="0" x2="1" y1="0" y2="1">
      <stop offset="0" stop-color="#d7ebf6"/>
      <stop offset=".48" stop-color="#fff7e0"/>
      <stop offset="1" stop-color="#f26b4f"/>
    </linearGradient>
    <linearGradient id="screen" x1="0" x2="1" y1="0" y2="1">
      <stop offset="0" stop-color="#ffffff"/>
      <stop offset="1" stop-color="#eef7f2"/>
    </linearGradient>
    <filter id="shadow" x="-20%" y="-20%" width="140%" height="150%">
      <feDropShadow dx="0" dy="28" stdDeviation="34" flood-color="#17201c" flood-opacity=".22"/>
    </filter>
  </defs>
  <rect width="1600" height="1000" fill="url(#bg)"/>
  <g opacity=".22" fill="none" stroke="#174638" stroke-width="2">
    <path d="M80 160 C340 40 540 220 760 126 S1160 40 1500 150"/>
    <path d="M90 760 C330 610 520 790 780 690 S1170 610 1510 730"/>
  </g>
  <g filter="url(#shadow)">
    <rect x="610" y="145" width="760" height="520" rx="34" fill="#17201c"/>
    <rect x="632" y="188" width="716" height="433" rx="20" fill="url(#screen)"/>
    <circle cx="664" cy="166" r="8" fill="#f26b4f"/>
    <circle cx="692" cy="166" r="8" fill="#e6b855"/>
    <circle cx="720" cy="166" r="8" fill="#2d7a5b"/>
    <rect x="684" y="234" width="210" height="24" rx="12" fill="#174638"/>
    <rect x="684" y="286" width="324" height="18" rx="9" fill="#98aaa1"/>
    <rect x="684" y="320" width="256" height="18" rx="9" fill="#c4d4cc"/>
    <rect x="684" y="374" width="138" height="50" rx="12" fill="#f26b4f"/>
    <rect x="1018" y="230" width="252" height="276" rx="22" fill="#d7ebf6"/>
    <rect x="1052" y="264" width="118" height="118" rx="18" fill="#e6b855"/>
    <rect x="1052" y="410" width="190" height="16" rx="8" fill="#174638"/>
    <rect x="1052" y="442" width="148" height="16" rx="8" fill="#88a096"/>
    <rect x="684" y="500" width="114" height="72" rx="16" fill="#ffffff"/>
    <rect x="822" y="500" width="114" height="72" rx="16" fill="#ffffff"/>
    <rect x="960" y="500" width="114" height="72" rx="16" fill="#ffffff"/>
  </g>
  <g filter="url(#shadow)">
    <rect x="300" y="405" width="420" height="520" rx="34" fill="#17201c"/>
    <rect x="326" y="456" width="368" height="416" rx="24" fill="#ffffff"/>
    <rect x="370" y="514" width="190" height="22" rx="11" fill="#174638"/>
    <rect x="370" y="558" width="250" height="16" rx="8" fill="#9aa9a0"/>
    <rect x="370" y="590" width="210" height="16" rx="8" fill="#c7d5ce"/>
    <rect x="370" y="646" width="250" height="126" rx="20" fill="#eef7f2"/>
    <rect x="400" y="682" width="96" height="20" rx="10" fill="#2d7a5b"/>
    <rect x="400" y="724" width="180" height="14" rx="7" fill="#9aa9a0"/>
    <rect x="370" y="806" width="146" height="44" rx="12" fill="#f26b4f"/>
  </g>
</svg>
